# xmcd CD database file
#
# Track frame offsets:
#	150
#	23943
#	44810
#	68960
#	91774
#	118948
#	152575
#	183804
#	210179
#	237460
#	265200
#
# Disc length: 3946 seconds
#
# Revision: 0
# Processed by: cddbd v1.5PL3 Copyright (c) Steve Scherf et al.
# Submitted via: CDex 1.50beta10
#
DISCID=930f680b
DTITLE=DIANA KRALL - LIVE IN PARIS
DYEAR=2004
DGENRE=Jazz
TTITLE0=I LOVE BEING HER WITH YOU
TTITLE1=LET'S FALL IN LOVE
TTITLE2=DEED I DO
TTITLE3=THE LOOK OF LOVE
TTITLE4=EAST OF THE SUN
TTITLE5=I'VE GOT YOU UNDER MY SKIN
TTITLE6=DEVIL MAY CARE
TTITLE7=MAYBE YOU'LL BE THERE
TTITLE8=SO WONDERFUL
TTITLE9=FLY ME TO THE MOON
TTITLE10=A CASE OF YOU
EXTD=YEAR: 2004
EXTT0=
EXTT1=
EXTT2=
EXTT3=
EXTT4=
EXTT5=
EXTT6=
EXTT7=
EXTT8=
EXTT9=
EXTT10=
PLAYORDER=
